<svg width="100" height="100" viewBox="0 0 100 100" fill="none" xmlns="http://www.w3.org/2000/svg">
<path d="M98.4855 93.5893C99.8371 94.941 99.8373 97.1333 98.4856 98.486C98.4855 98.486 98.4855 98.4861 98.4854 98.4862C97.1329 99.8382 94.9406 99.8382 93.588 98.486C93.5879 98.486 93.5879 98.486 93.5879 98.486L50.3526 55.2508L49.999 54.8973L49.6454 55.2509L6.41089 98.486L6.76445 98.8396L6.41086 98.4861C5.05912 99.8381 2.86671 99.8383 1.51404 98.486C0.162377 97.1342 0.162235 94.942 1.5141 93.5893C1.51413 93.5892 1.51416 93.5892 1.51419 93.5892L44.7495 50.3532L45.103 49.9997L44.7495 49.6461L1.51409 6.41172C0.162346 5.05999 0.162213 2.86753 1.51418 1.51486L1.51419 1.51486C2.8659 0.162432 5.05824 0.162297 6.4109 1.51495L49.6462 44.7502L49.9998 45.1037L50.3534 44.7502L93.5888 1.51495L93.5888 1.51487C94.9405 0.162513 97.1329 0.162219 98.4864 1.51495C99.8382 2.86674 99.8382 5.05994 98.4864 6.41173L55.2494 49.6461L54.8958 49.9997L55.2493 50.3533L98.4855 93.5893Z" fill="#F9F9F8" stroke="#F9F9F8"/>
</svg>
